<?xml version="1.0" encoding="UTF-8"?>
<!DOCTYPE svg PUBLIC "-//W3C//DTD SVG 1.1//EN" "http://www.w3.org/Graphics/SVG/1.1/DTD/svg11.dtd">
<svg xmlns="http://www.w3.org/2000/svg" version="1.1" width="400px" height="400px" style="shape-rendering:geometricPrecision; text-rendering:geometricPrecision; image-rendering:optimizeQuality; fill-rule:evenodd; clip-rule:evenodd" xmlns:xlink="http://www.w3.org/1999/xlink">
<g><path style="opacity:0.579" fill="#c7161d" d="M 177.5,26.5 C 181.92,27.0898 182.586,29.0898 179.5,32.5C 178.311,33.4287 176.978,33.762 175.5,33.5C 177.123,39.3961 177.623,45.3961 177,51.5C 174.623,54.5158 171.623,56.5158 168,57.5C 164.59,56.9245 162.757,54.9245 162.5,51.5C 166.643,51.3476 169.976,49.6809 172.5,46.5C 172.192,45.6919 171.692,45.0253 171,44.5C 168.322,46.2443 165.322,47.2443 162,47.5C 160.674,47.2451 159.674,46.5784 159,45.5C 157.743,47.7458 155.91,49.0791 153.5,49.5C 153.5,52.8333 153.5,56.1667 153.5,59.5C 151.278,59.822 149.444,59.1554 148,57.5C 146.49,48.7063 145.323,40.0397 144.5,31.5C 148.833,30.1667 153.167,30.1667 157.5,31.5C 164.071,29.1905 170.738,27.5238 177.5,26.5 Z M 165.5,33.5 C 166.978,33.238 168.311,33.5713 169.5,34.5C 166.32,35.4367 163.153,36.4367 160,37.5C 158.668,39.9362 157.501,39.9362 156.5,37.5C 159.763,36.5328 162.763,35.1995 165.5,33.5 Z"/></g>
<g><path style="opacity:0.622" fill="#c7161d" d="M 226.5,26.5 C 233.86,26.5578 241.194,27.0578 248.5,28C 253.454,28.7631 258.12,30.2631 262.5,32.5C 261.855,33.646 261.022,34.646 260,35.5C 259.911,42.9442 259.078,50.2775 257.5,57.5C 254.202,60.3594 252.202,59.526 251.5,55C 250.207,54.51 248.873,54.3433 247.5,54.5C 247.277,58.6246 245.777,59.2912 243,56.5C 242.51,55.2068 242.343,53.8734 242.5,52.5C 240.027,52.7991 237.86,53.7991 236,55.5C 234.347,55.1802 233.347,54.1802 233,52.5C 229.323,55.6168 225.489,55.9502 221.5,53.5C 220.112,52.4091 219.612,51.0758 220,49.5C 222.796,48.7887 225.63,48.122 228.5,47.5C 230.439,45.8778 230.772,44.0445 229.5,42C 227.527,41.5045 225.527,41.3379 223.5,41.5C 225.017,38.4127 225.684,35.0794 225.5,31.5C 226.552,31.6495 227.552,31.4828 228.5,31C 226.893,29.951 226.227,28.451 226.5,26.5 Z"/></g>
<g><path style="opacity:0.57" fill="#c7161d" d="M 305.5,46.5 C 311.674,47.6705 315.007,51.3372 315.5,57.5C 317.451,57.2267 318.951,57.8934 320,59.5C 321.577,56.8005 323.743,56.1339 326.5,57.5C 327.711,58.7202 327.711,59.8869 326.5,61C 328.241,62.6196 330.075,64.1196 332,65.5C 333.274,71.5656 330.774,74.7323 324.5,75C 322.18,77.9558 319.513,78.1225 316.5,75.5C 315.812,77.7177 316.812,79.2177 319.5,80C 322.063,81.0793 324.729,81.5793 327.5,81.5C 328.035,84.2385 327.035,86.0718 324.5,87C 315.34,87.8393 310.507,83.6726 310,74.5C 311.256,72.2457 312.423,69.9123 313.5,67.5C 312.333,67.1667 311.167,66.8333 310,66.5C 307.429,67.3238 304.929,67.3238 302.5,66.5C 300.541,68.2447 299.208,70.4114 298.5,73C 292.88,74.3855 291.38,72.5522 294,67.5C 298.389,60.716 302.222,53.716 305.5,46.5 Z M 315.5,62.5 C 318.631,64.2872 321.964,65.6205 325.5,66.5C 325.662,68.5273 325.495,70.5273 325,72.5C 323.301,71.5939 321.467,71.2606 319.5,71.5C 319.662,69.4727 319.495,67.4727 319,65.5C 317.271,65.0257 316.105,64.0257 315.5,62.5 Z"/></g>
<g><path style="opacity:0.595" fill="#c7161d" d="M 90.5,52.5 C 92.1667,52.5 93.8333,52.5 95.5,52.5C 95.3415,55.1871 96.1748,57.5204 98,59.5C 98.3333,59.1667 98.6667,58.8333 99,58.5C 100.507,59.5046 101.673,60.838 102.5,62.5C 104.071,61.6906 105.738,61.3573 107.5,61.5C 107.846,64.6021 107.179,67.4355 105.5,70C 107.155,71.4443 107.822,73.2776 107.5,75.5C 104.67,75.3059 102.004,74.6392 99.5,73.5C 99.7989,75.604 99.4656,77.604 98.5,79.5C 97.2519,78.9598 96.0852,78.2931 95,77.5C 95.8418,82.6688 94.0084,83.6688 89.5,80.5C 86.675,89.6973 84.5084,89.6973 83,80.5C 81.1516,83.0414 78.6516,84.0414 75.5,83.5C 74.8285,79.6847 76.1619,76.8514 79.5,75C 78.2068,74.51 76.8734,74.3433 75.5,74.5C 75.472,72.4176 76.1387,70.5843 77.5,69C 73.8101,68.3096 72.6434,66.1429 74,62.5C 75.2419,61.1279 76.7419,60.1279 78.5,59.5C 78.6158,53.6733 80.9492,52.3399 85.5,55.5C 87.3964,54.7255 89.063,53.7255 90.5,52.5 Z"/></g>
<g><path style="opacity:0.949" fill="#c91f22" d="M 191.5,64.5 C 242.251,61.7493 287.584,75.5826 327.5,106C 340.638,117.469 351.138,130.969 359,146.5C 375.679,194.132 364.512,233.965 325.5,266C 293.272,289.832 256.939,303.165 216.5,306C 177.138,307.776 139.805,300.11 104.5,283C 75.7208,267.886 54.8875,245.386 42,215.5C 34.4967,189.208 36.83,163.875 49,139.5C 65.39,113.711 87.5567,94.5448 115.5,82C 139.884,71.7583 165.218,65.925 191.5,64.5 Z"/></g>
<g><path style="opacity:1" fill="#f6e4bb" d="M 195.5,69.5 C 216.4,69.1996 232.9,77.533 245,94.5C 254.361,107.079 260.527,121.079 263.5,136.5C 262.127,136.343 260.793,136.51 259.5,137C 250.085,141.369 241.085,146.203 232.5,151.5C 226.673,132.015 216.673,115.015 202.5,100.5C 188.09,114.301 177.424,130.634 170.5,149.5C 161.7,142.933 152.034,138.266 141.5,135.5C 145.804,113.4 156.471,94.8996 173.5,80C 180.281,75.1074 187.614,71.6074 195.5,69.5 Z"/></g>
<g><path style="opacity:1" fill="#e1896f" d="M 153.5,76.5 C 153.158,75.6618 152.492,75.3284 151.5,75.5C 155.96,73.6397 160.627,72.4731 165.5,72C 161.51,73.6066 157.51,75.1066 153.5,76.5 Z"/></g>
<g><path style="opacity:1" fill="#ebb08f" d="M 259.5,78.5 C 258.209,78.2627 257.209,78.596 256.5,79.5C 251.57,77.2431 246.57,75.0764 241.5,73C 248.047,73.2995 254.047,75.1329 259.5,78.5 Z"/></g>
<g><path style="opacity:1" fill="#edba97" d="M 163.5,81.5 C 163.179,79.9519 162.179,79.2852 160.5,79.5C 166.264,75.5239 172.597,73.0239 179.5,72C 173.643,74.4227 168.31,77.5894 163.5,81.5 Z"/></g>
<g><path style="opacity:1" fill="#f5dfb7" d="M 160.5,79.5 C 162.179,79.2852 163.179,79.9519 163.5,81.5C 147.773,94.612 136.773,110.945 130.5,130.5C 128.194,130.007 125.861,129.674 123.5,129.5C 122.833,129.5 122.167,129.5 121.5,129.5C 119.257,128.868 117.591,127.534 116.5,125.5C 126.664,105.819 141.331,90.4855 160.5,79.5 Z"/></g>
<g><path style="opacity:1" fill="#f6e1b8" d="M 256.5,79.5 C 257.209,78.596 258.209,78.2627 259.5,78.5C 297.037,93.2031 322.537,119.536 336,157.5C 336.696,160.478 337.196,163.478 337.5,166.5C 338.245,176.148 338.578,185.815 338.5,195.5C 338.44,196.043 338.107,196.376 337.5,196.5C 331.949,194.095 326.283,192.095 320.5,190.5C 321.033,140.741 299.7,103.741 256.5,79.5 Z"/></g>
<g><path style="opacity:1" fill="#f5dfb6" d="M 227.5,73.5 C 227.56,72.9569 227.893,72.6236 228.5,72.5C 256.608,82.6124 276.608,101.279 288.5,128.5C 284.022,128.862 279.688,129.862 275.5,131.5C 270.043,119.252 263.543,107.585 256,96.5C 248.121,86.7842 238.621,79.1175 227.5,73.5 Z"/></g>
<g><path style="opacity:1" fill="#f5e1b8" d="M 151.5,75.5 C 152.492,75.3284 153.158,75.6618 153.5,76.5C 114.508,96.0104 91.3412,127.344 84,170.5C 83.5004,177.158 83.3337,183.825 83.5,190.5C 77.5,192.167 71.5,193.833 65.5,195.5C 63.3738,153.255 79.3738,119.755 113.5,95C 125.202,86.6488 137.869,80.1488 151.5,75.5 Z"/></g>
<g><path style="opacity:0.589" fill="#c7161d" d="M 31.5,101.5 C 35.0681,101.759 36.4015,103.759 35.5,107.5C 39.9858,108.736 44.3191,110.57 48.5,113C 51.3127,115.536 51.146,117.703 48,119.5C 46.5272,119.097 45.1939,118.43 44,117.5C 44.9122,120.31 44.4122,122.977 42.5,125.5C 46.8305,130.546 45.4972,132.546 38.5,131.5C 38.7499,134.505 37.4166,136.338 34.5,137C 35.4061,138.699 35.7394,140.533 35.5,142.5C 28.9281,141.443 23.7614,138.109 20,132.5C 19.2904,133.973 18.1238,134.64 16.5,134.5C 16.3347,130.818 16.5014,127.152 17,123.5C 19.5618,122.102 19.8951,120.435 18,118.5C 17.3333,116.833 17.3333,115.167 18,113.5C 20.2317,112.813 22.3984,112.479 24.5,112.5C 26.5908,108.645 28.9241,104.979 31.5,101.5 Z M 37.5,113.5 C 39.1376,114.657 40.8043,115.824 42.5,117C 40.2533,118.386 37.9199,118.219 35.5,116.5C 36.1925,115.482 36.8592,114.482 37.5,113.5 Z M 30.5,133.5 C 26.6382,133.167 25.8048,131.501 28,128.5C 28.3661,130.452 29.1995,132.118 30.5,133.5 Z M 30.5,133.5 C 32.3531,132.386 32.8531,133.052 32,135.5C 31.2828,134.956 30.7828,134.289 30.5,133.5 Z"/></g>
<g><path style="opacity:0.595" fill="#c7161d" d="M 371.5,113.5 C 373.954,113.679 376.121,113.013 378,111.5C 380.547,113.177 383.38,113.844 386.5,113.5C 386.67,116.266 387.336,118.933 388.5,121.5C 388.007,124.687 388.007,128.021 388.5,131.5C 385.679,131.539 383.012,132.205 380.5,133.5C 381.767,135.371 381.767,137.204 380.5,139C 377.518,139.498 374.518,139.665 371.5,139.5C 371.241,136.52 372.574,134.687 375.5,134C 375,133.5 374.5,133 374,132.5C 371.354,135.246 368.188,136.413 364.5,136C 363.483,134.951 363.316,133.784 364,132.5C 365.558,130.641 367.391,129.141 369.5,128C 365.713,127.84 362.046,127.174 358.5,126C 357.167,124.333 357.167,122.667 358.5,121C 353.437,120.781 352.437,118.781 355.5,115C 361.657,112.844 365.657,108.844 367.5,103C 371.93,104.506 376.597,105.339 381.5,105.5C 381.762,106.978 381.429,108.311 380.5,109.5C 378.224,110.213 375.891,110.713 373.5,111C 372.619,111.708 371.953,112.542 371.5,113.5 Z M 371.5,113.5 C 370.486,114.674 369.153,115.34 367.5,115.5C 368.287,113.896 369.62,113.229 371.5,113.5 Z M 367.5,115.5 C 365.919,117.142 365.253,119.142 365.5,121.5C 363.692,121.509 362.025,121.009 360.5,120C 362.551,117.98 364.884,116.48 367.5,115.5 Z"/></g>
<g><path style="opacity:1" fill="#fefcfb" d="M 177.5,159.5 C 178.924,157.485 179.59,155.152 179.5,152.5C 183.908,138.574 190.742,125.908 200,114.5C 201.049,113.483 202.216,113.316 203.5,114C 213.957,126.151 221.457,139.985 226,155.5C 232.136,186.425 224.136,213.092 202,235.5C 181.449,214.086 173.283,188.753 177.5,159.5 Z"/></g>
<g><path style="opacity:1" fill="#e6987c" d="M 116.5,125.5 C 117.591,127.534 119.257,128.868 121.5,129.5C 119.738,129.643 118.071,129.309 116.5,128.5C 115.224,127.386 115.224,126.386 116.5,125.5 Z"/></g>
<g><path style="opacity:1" fill="#e08069" d="M 123.5,129.5 C 125.861,129.674 128.194,130.007 130.5,130.5C 128.047,131.645 125.713,131.312 123.5,129.5 Z"/></g>
<g><path style="opacity:0.999" fill="#fefbfb" d="M 150.5,191.5 C 147.374,189.01 143.708,187.677 139.5,187.5C 134.781,187.282 130.281,186.282 126,184.5C 125.59,183.099 125.09,181.766 124.5,180.5C 123.538,176.605 122.204,172.939 120.5,169.5C 118.806,158.915 118.14,148.249 118.5,137.5C 136.955,139.98 153.455,146.98 168,158.5C 166.296,173.488 167.796,188.154 172.5,202.5C 172.167,202.833 171.833,203.167 171.5,203.5C 164.934,198.718 157.934,194.718 150.5,191.5 Z"/></g>
<g><path style="opacity:0.999" fill="#fefafa" d="M 281.5,137.5 C 283.451,137.227 284.951,137.893 286,139.5C 287.051,154.973 284.885,169.973 279.5,184.5C 261.966,186.022 246.466,192.355 233,203.5C 233.66,198.176 234.66,192.843 236,187.5C 236.168,178.149 236.668,168.816 237.5,159.5C 250.875,149.479 265.542,142.146 281.5,137.5 Z"/></g>
<g><path style="opacity:1" fill="#e39077" d="M 110.5,157.5 C 109.833,153.167 109.167,148.833 108.5,144.5C 108.312,142.897 108.812,141.563 110,140.5C 110.499,146.157 110.666,151.824 110.5,157.5 Z"/></g>
<g><path style="opacity:1" fill="#d86050" d="M 295.5,142.5 C 294.833,148.833 294.167,155.167 293.5,161.5C 293.334,154.159 293.5,146.826 294,139.5C 295.039,140.244 295.539,141.244 295.5,142.5 Z"/></g>
<g><path style="opacity:1" fill="#f5ddb4" d="M 295.5,142.5 C 298.964,152.892 300.964,163.559 301.5,174.5C 301.5,178.167 301.5,181.833 301.5,185.5C 300.5,185.5 299.5,185.5 298.5,185.5C 295.5,185.5 292.5,185.5 289.5,185.5C 291.039,177.545 292.372,169.545 293.5,161.5C 294.167,155.167 294.833,148.833 295.5,142.5 Z"/></g>
<g><path style="opacity:1" fill="#f5e0b7" d="M 108.5,144.5 C 109.167,148.833 109.833,153.167 110.5,157.5C 111.866,166.964 113.866,176.297 116.5,185.5C 112.833,185.5 109.167,185.5 105.5,185.5C 104.188,183.257 103.522,180.59 103.5,177.5C 104.168,170.495 104.835,163.495 105.5,156.5C 106.09,152.397 107.09,148.397 108.5,144.5 Z"/></g>
<g><path style="opacity:1" fill="#eeb4b1" d="M 179.5,152.5 C 179.59,155.152 178.924,157.485 177.5,159.5C 177.41,156.848 178.076,154.515 179.5,152.5 Z"/></g>
<g><path style="opacity:1" fill="#ebaf8e" d="M 105.5,156.5 C 104.835,163.495 104.168,170.495 103.5,177.5C 103.522,180.59 104.188,183.257 105.5,185.5C 104.791,186.404 103.791,186.737 102.5,186.5C 102.334,179.825 102.5,173.158 103,166.5C 103.535,162.962 104.368,159.628 105.5,156.5 Z"/></g>
<g><path style="opacity:1" fill="#df736f" d="M 120.5,169.5 C 122.204,172.939 123.538,176.605 124.5,180.5C 122.01,177.374 120.677,173.708 120.5,169.5 Z"/></g>
<g><path style="opacity:1" fill="#e0836d" d="M 301.5,174.5 C 302.483,178.298 302.817,182.298 302.5,186.5C 300.901,186.768 299.568,186.434 298.5,185.5C 299.5,185.5 300.5,185.5 301.5,185.5C 301.5,181.833 301.5,178.167 301.5,174.5 Z"/></g>
<g><path style="opacity:1" fill="#ebb290" d="M 337.5,166.5 C 338.993,172.092 339.659,177.926 339.5,184C 339.499,188.015 339.165,191.849 338.5,195.5C 338.578,185.815 338.245,176.148 337.5,166.5 Z"/></g>
<g><path style="opacity:1" fill="#eaa29f" d="M 139.5,187.5 C 143.708,187.677 147.374,189.01 150.5,191.5C 146.605,190.538 142.939,189.204 139.5,187.5 Z"/></g>
<g><path style="opacity:1" fill="#f1bcb8" d="M 128.5,194.5 C 116.431,194.213 104.431,194.88 92.5,196.5C 95.9416,195.252 99.6083,194.419 103.5,194C 112.01,193.177 120.344,193.343 128.5,194.5 Z"/></g>
<g><path style="opacity:1" fill="#fefdfc" d="M 128.5,194.5 C 150.058,197.363 167.558,207.363 181,224.5C 183.667,228.5 186.333,232.5 189,236.5C 190.59,238.65 191.257,240.983 191,243.5C 185.128,246.402 178.961,248.402 172.5,249.5C 164.572,250.93 156.572,251.597 148.5,251.5C 127.304,250.318 109.471,241.985 95,226.5C 88.3022,218.932 82.4688,210.766 77.5,202C 78.619,200.124 80.2856,199.291 82.5,199.5C 86.1621,199.277 89.4954,198.277 92.5,196.5C 104.431,194.88 116.431,194.213 128.5,194.5 Z"/></g>
<g><path style="opacity:1" fill="#f4ccc9" d="M 296.5,194.5 C 287.148,194.434 277.815,194.768 268.5,195.5C 273.748,193.978 279.248,193.311 285,193.5C 289.015,193.501 292.849,193.835 296.5,194.5 Z"/></g>
<g><path style="opacity:1" fill="#fefcfc" d="M 296.5,194.5 C 306.773,195.299 316.773,197.299 326.5,200.5C 315.313,225.352 296.647,241.685 270.5,249.5C 262.581,251.018 254.581,251.685 246.5,251.5C 240.992,251.849 235.659,251.183 230.5,249.5C 228.485,248.076 226.152,247.41 223.5,247.5C 220.432,246.978 217.432,246.145 214.5,245C 213.426,244.261 212.759,243.261 212.5,242C 222.926,221.071 238.926,206.238 260.5,197.5C 263.152,197.59 265.485,196.924 267.5,195.5C 267.833,195.5 268.167,195.5 268.5,195.5C 277.815,194.768 287.148,194.434 296.5,194.5 Z"/></g>
<g><path style="opacity:1" fill="#eba9a6" d="M 267.5,195.5 C 265.485,196.924 263.152,197.59 260.5,197.5C 262.515,196.076 264.848,195.41 267.5,195.5 Z"/></g>
<g><path style="opacity:1" fill="#eeb0ad" d="M 92.5,196.5 C 89.4954,198.277 86.1621,199.277 82.5,199.5C 85.5046,197.723 88.8379,196.723 92.5,196.5 Z"/></g>
<g><path style="opacity:1" fill="#f5ddb4" d="M 157.5,295.5 C 157.158,296.338 156.492,296.672 155.5,296.5C 115.006,283.67 86.6731,257.67 70.5,218.5C 70.5905,215.848 69.9238,213.515 68.5,211.5C 67.4084,207.885 66.9084,204.218 67,200.5C 74.3359,215.483 84.3359,228.483 97,239.5C 110.629,265.298 130.795,283.965 157.5,295.5 Z"/></g>
<g><path style="opacity:1" fill="#f5ddb5" d="M 249.5,295.5 C 249.5,295.167 249.5,294.833 249.5,294.5C 275.67,282.831 295.17,264.164 308,238.5C 320.618,227.544 330.618,214.544 338,199.5C 331.814,235.036 313.314,262.203 282.5,281C 271.967,286.934 260.967,291.767 249.5,295.5 Z"/></g>
<g><path style="opacity:1" fill="#df7963" d="M 68.5,211.5 C 69.9238,213.515 70.5905,215.848 70.5,218.5C 69.0762,216.485 68.4095,214.152 68.5,211.5 Z"/></g>
<g><path style="opacity:1" fill="#eaa6a4" d="M 223.5,247.5 C 226.152,247.41 228.485,248.076 230.5,249.5C 227.848,249.59 225.515,248.924 223.5,247.5 Z"/></g>
<g><path style="opacity:1" fill="#f6e4bb" d="M 242.5,259.5 C 246.167,260.167 249.833,260.833 253.5,261.5C 244.665,280.504 230.331,293.337 210.5,300C 199.887,301.791 189.887,300.124 180.5,295C 167.501,286.352 157.501,275.019 150.5,261C 168.332,260.069 185.332,255.902 201.5,248.5C 214.291,255.064 227.958,258.731 242.5,259.5 Z"/></g>
<g><path style="opacity:1" fill="#d85b57" d="M 172.5,249.5 C 170.438,250.776 168.104,251.61 165.5,252C 159.651,252.818 153.985,252.652 148.5,251.5C 156.572,251.597 164.572,250.93 172.5,249.5 Z"/></g>
<g><path style="opacity:1" fill="#d75653" d="M 270.5,249.5 C 268.524,251.011 266.191,251.844 263.5,252C 257.651,252.818 251.985,252.652 246.5,251.5C 254.581,251.685 262.581,251.018 270.5,249.5 Z"/></g>
<g><path style="opacity:1" fill="#f4dcb3" d="M 173.5,295.5 C 173.5,296.167 173.167,296.5 172.5,296.5C 157.066,290.914 143.9,281.914 133,269.5C 129.344,265.521 126.178,261.188 123.5,256.5C 123.833,256.167 124.167,255.833 124.5,255.5C 129.035,257.178 133.702,258.345 138.5,259C 144.627,269.241 151.961,278.574 160.5,287C 164.716,290.056 169.049,292.889 173.5,295.5 Z"/></g>
<g><path style="opacity:1" fill="#f4dbb3" d="M 231.5,296.5 C 231.5,296.167 231.5,295.833 231.5,295.5C 246.074,286.424 257.407,274.257 265.5,259C 270.778,257.344 276.111,256.344 281.5,256C 269.409,275.269 252.742,288.769 231.5,296.5 Z"/></g>
<g><path style="opacity:1" fill="#de7b64" d="M 242.5,259.5 C 246.555,259.176 250.555,259.509 254.5,260.5C 254.376,261.107 254.043,261.44 253.5,261.5C 249.833,260.833 246.167,260.167 242.5,259.5 Z"/></g>
<g><path style="opacity:1" fill="#db6c58" d="M 157.5,295.5 C 160.814,296.664 164.148,297.83 167.5,299C 163.239,299.099 159.239,298.266 155.5,296.5C 156.492,296.672 157.158,296.338 157.5,295.5 Z"/></g>
<g><path style="opacity:1" fill="#df8169" d="M 231.5,295.5 C 231.5,295.833 231.5,296.167 231.5,296.5C 230.057,297.703 228.391,298.203 226.5,298C 227.91,296.628 229.577,295.795 231.5,295.5 Z"/></g>
<g><path style="opacity:1" fill="#db6f5a" d="M 173.5,295.5 C 175.14,296.32 176.807,297.153 178.5,298C 176.119,298.738 174.119,298.238 172.5,296.5C 173.167,296.5 173.5,296.167 173.5,295.5 Z"/></g>
<g><path style="opacity:1" fill="#db6c58" d="M 249.5,294.5 C 249.5,294.833 249.5,295.167 249.5,295.5C 246.79,297.108 243.79,298.275 240.5,299C 239.167,299.667 237.833,299.667 236.5,299C 240.894,297.591 245.228,296.091 249.5,294.5 Z"/></g>
<g><path style="opacity:0.663" fill="#231916" d="M 88.5,326.5 C 94.5557,326.658 97.5557,329.658 97.5,335.5C 94.4383,336.054 91.4383,336.554 88.5,337C 84.6177,333.251 84.6177,329.751 88.5,326.5 Z"/></g>
<g><path style="opacity:0.94" fill="#231916" d="M 202.5,327.5 C 208.696,328.334 211.362,331.667 210.5,337.5C 214.469,337.185 218.469,337.685 222.5,339C 223.91,339.368 224.91,340.201 225.5,341.5C 224.307,343.527 222.64,345.027 220.5,346C 216.514,346.499 212.514,346.666 208.5,346.5C 208.579,347.93 208.246,349.264 207.5,350.5C 216.816,351.332 226.149,351.832 235.5,352C 236.517,353.049 236.684,354.216 236,355.5C 232.236,357.632 228.736,360.132 225.5,363C 222.833,363.667 220.167,363.667 217.5,363C 214.637,361.601 211.637,360.601 208.5,360C 197.481,359.548 186.481,359.548 175.5,360C 174.339,357.279 175.006,354.946 177.5,353C 184.158,352.5 190.825,352.334 197.5,352.5C 197.5,350.5 197.5,348.5 197.5,346.5C 192.489,346.666 187.489,346.499 182.5,346C 181.271,343.381 181.604,340.881 183.5,338.5C 187.445,337.509 191.445,337.176 195.5,337.5C 196.23,333.094 198.563,329.761 202.5,327.5 Z"/></g>
<g><path style="opacity:0.949" fill="#241917" d="M 109.5,324.5 C 114.17,325.072 118.837,325.739 123.5,326.5C 127.144,325.585 130.81,325.419 134.5,326C 134.957,326.414 135.291,326.914 135.5,327.5C 134.5,328.833 133.5,330.167 132.5,331.5C 134.306,335.105 133.306,337.605 129.5,339C 130.448,339.483 131.448,339.649 132.5,339.5C 132.5,341.5 132.5,343.5 132.5,345.5C 136.514,345.334 140.514,345.501 144.5,346C 145.747,347.458 145.747,348.958 144.5,350.5C 137.396,352.574 130.73,355.574 124.5,359.5C 123.388,364.697 121.054,369.197 117.5,373C 112.5,373.667 107.5,373.667 102.5,373C 99.1818,368.557 100.015,365.391 105,363.5C 110.419,367.13 113.586,365.797 114.5,359.5C 107.212,360.383 105.879,358.216 110.5,353C 106.345,352.377 105.012,350.21 106.5,346.5C 107.795,345.902 109.128,345.402 110.5,345C 109.167,343.333 109.167,341.667 110.5,340C 109.975,339.308 109.308,338.808 108.5,338.5C 107.865,334.997 106.865,331.663 105.5,328.5C 105.667,327.833 105.833,327.167 106,326.5C 107.302,325.915 108.469,325.249 109.5,324.5 Z M 125.5,338.5 C 125.511,335.999 126.178,335.832 127.5,338C 126.906,338.464 126.239,338.631 125.5,338.5 Z"/></g>
<g><path style="opacity:0.79" fill="#231916" d="M 95.5,341.5 C 99.35,341.701 100.35,343.534 98.5,347C 96.2591,348.522 93.9258,349.855 91.5,351C 86.6512,352.476 83.3179,350.976 81.5,346.5C 82.3128,345.186 83.3128,344.019 84.5,343C 88.3563,342.823 92.023,342.323 95.5,341.5 Z"/></g>
<g><path style="opacity:0.974" fill="#241a17" d="M 292.5,323.5 C 297.931,322.094 300.265,324.094 299.5,329.5C 305.847,330.604 312.181,330.771 318.5,330C 320.237,334.283 319.57,338.117 316.5,341.5C 310.879,344.054 308.213,342.387 308.5,336.5C 302.491,336.334 296.491,336.501 290.5,337C 295.823,337.499 301.156,337.666 306.5,337.5C 307.035,340.238 306.035,342.072 303.5,343C 305.556,343.311 307.556,343.811 309.5,344.5C 310.644,347.248 309.644,349.081 306.5,350C 303.833,350.333 301.167,350.667 298.5,351C 300.099,352.504 301.932,352.67 304,351.5C 309.767,353.131 315.267,355.465 320.5,358.5C 321.833,359.833 321.833,361.167 320.5,362.5C 317.29,365.222 313.624,366.056 309.5,365C 306.333,362.833 303.167,360.667 300,358.5C 300.739,365.933 297.573,368.933 290.5,367.5C 289.182,362.865 289.515,358.365 291.5,354C 288.627,351.908 285.293,350.908 281.5,351C 279.598,349.606 279.265,347.773 280.5,345.5C 282.308,345.509 283.975,345.009 285.5,344C 283.82,343.653 282.82,342.653 282.5,341C 283.509,339.832 284.509,338.665 285.5,337.5C 283.405,336.771 281.572,337.437 280,339.5C 279.947,342.245 278.78,344.245 276.5,345.5C 274.382,344.054 272.049,343.387 269.5,343.5C 270.403,339.857 271.736,336.357 273.5,333C 276.939,332.783 279.605,331.283 281.5,328.5C 284.039,329.115 286.539,329.782 289,330.5C 288.892,327.363 290.059,325.03 292.5,323.5 Z"/></g>
<g><path style="opacity:0.772" fill="#251b18" d="M 282.5,352.5 C 284.199,352.34 285.866,352.506 287.5,353C 288.059,353.725 288.392,354.558 288.5,355.5C 285.077,363.04 279.411,365.373 271.5,362.5C 271.244,360.208 271.577,358.041 272.5,356C 276.447,356.153 279.781,354.986 282.5,352.5 Z"/></g>
<g><path style="opacity:0.596" fill="#241a18" d="M 95.5,354.5 C 96.8333,354.5 98.1667,354.5 99.5,354.5C 99.6602,356.199 99.4935,357.866 99,359.5C 96.8515,360.977 95.5182,362.977 95,365.5C 92.3333,366.833 89.6667,366.833 87,365.5C 86.3333,364.167 86.3333,362.833 87,361.5C 89.4639,358.519 92.2972,356.186 95.5,354.5 Z"/></g>
</svg>
