<?xml version="1.0" encoding="UTF-8"?>
<svg version="1.1" xmlns="http://www.w3.org/2000/svg" width="512" height="512">
<path d="M0 0 C0 0.66 0 1.32 0 2 C-2.23482454 3.91303342 -4.4765136 5.71866653 -6.8125 7.5 C-7.45509766 7.99886719 -8.09769531 8.49773437 -8.75976562 9.01171875 C-11.46254901 11.10112435 -14.15529761 13.10353174 -17 15 C-8.04318208 22.41871463 -0.94706611 24.2627106 10.625 23.875 C12.09854836 23.85395019 13.57209988 23.83312126 15.0456543 23.8125 C30.23096533 23.45347588 45.02990924 20.70309382 59.85083008 17.55078125 C65.24898679 16.60665833 65.24898679 16.60665833 68 17 C69.5546875 18.59448242 69.5546875 18.59448242 70.875 20.85546875 C71.3793457 21.69295654 71.88369141 22.53044434 72.40332031 23.39331055 C73.19367676 24.77643433 73.19367676 24.77643433 74 26.1875 C78.879231 34.71062047 78.879231 34.71062047 84.703125 42.59375 C95.44154602 56.09581024 95.25986618 69.30700755 94.42871094 85.90112305 C93.925699 98.89244814 96.42343589 105.33701303 105 115 C106.22563158 116.63894923 107.43396924 118.29111059 108.6171875 119.9609375 C110.88959545 123.04727633 113.17334513 126.12512668 115.45703125 129.203125 C117.79817422 132.35882934 120.10495599 135.53550502 122.38671875 138.734375 C123.44530116 140.19792487 124.50389439 141.66146692 125.5625 143.125 C126.03864746 143.8061084 126.51479492 144.4872168 127.00537109 145.18896484 C130.01320099 149.3088257 130.71861075 149.94372215 136 151 C136 145.39 136 139.78 136 134 C136.66 134 137.32 134 138 134 C139.85638226 137.80619129 141.7076563 141.61481041 143.55419922 145.42578125 C144.18332711 146.72236283 144.81385541 148.01826587 145.44580078 149.31347656 C146.35296172 151.17337011 147.25508803 153.03563141 148.15625 154.8984375 C148.70087891 156.01911621 149.24550781 157.13979492 149.80664062 158.29443359 C151 161 151 161 151 163 C152.18851563 163.23074219 153.37703125 163.46148437 154.6015625 163.69921875 C159.08288923 164.57546348 163.55697518 165.48511334 168.03027344 166.40136719 C170.99821528 166.99964024 173.97119184 167.56617352 176.9453125 168.1328125 C178.88050535 168.52457733 180.81540983 168.91776977 182.75 169.3125 C183.65314941 169.47645264 184.55629883 169.64040527 185.48681641 169.80932617 C195.08956523 171.83768561 200.16443933 177.9878298 206.4375 185.0625 C213.03385131 192.10710436 220.8722803 194.5342179 230 197 C229.37401101 201.34884219 227.79653275 204.7212388 225.8046875 208.62109375 C225.16478573 209.89879881 224.52548086 211.17680294 223.88671875 212.45507812 C222.88155494 214.45090582 221.87170492 216.44391809 220.85107422 218.43188477 C219.86292684 220.36309023 218.89514035 222.30346552 217.9296875 224.24609375 C217.05159424 225.97363892 217.05159424 225.97363892 216.15576172 227.73608398 C214.42425889 232.62591527 215.28577248 235.45998127 217.42700195 240.0769043 C218.02472412 241.14851807 218.62244629 242.22013184 219.23828125 243.32421875 C219.56032028 243.91112991 219.88235931 244.49804108 220.2141571 245.10273743 C221.23869676 246.96902071 222.27421138 248.82883519 223.3125 250.6875 C227.91080074 258.92788989 232.12458841 266.96869285 235 276 C235.39340576 277.19133545 235.78681152 278.3826709 236.19213867 279.61010742 C237.28369125 282.95124792 238.31076533 286.30844909 239.31176758 289.67773438 C239.72800784 291.05621559 240.15767868 292.43071437 240.60083008 293.80078125 C244.03727987 304.45517617 244.15829694 312.01424629 241 323 C240.65380555 324.28858202 240.31065409 325.5779852 239.97045898 326.86816406 C239.27269308 329.49332843 238.56105217 332.11416209 237.83959961 334.73291016 C234.39208629 347.35643443 231.80366712 358.84833805 233.72558594 371.98779297 C234.18770959 375.37642563 234.35236921 378.77456929 234.5625 382.1875 C234.70627449 384.12515387 234.85172794 386.0626851 235 388 C223.86431341 390.23250453 212.9395346 390.3581852 201.625 390.3125 C200.69247406 390.31067719 199.75994812 390.30885437 198.79916382 390.30697632 C184.65913964 390.26041668 170.91641408 389.68207253 157 387 C156.10007324 386.83902832 155.20014648 386.67805664 154.27294922 386.51220703 C94.64048568 375.71801567 36.71637889 341.68504569 0 293 C-0.48678223 292.35724121 -0.97356445 291.71448242 -1.47509766 291.05224609 C-13.11089794 275.59795164 -22.65508657 259.43105153 -31 242 C-31.44859375 241.08347656 -31.8971875 240.16695312 -32.359375 239.22265625 C-45.96962505 210.54391507 -54.02722002 177.42107034 -54.203125 145.64453125 C-54.21364647 144.36044373 -54.21364647 144.36044373 -54.22438049 143.05041504 C-54.24177398 140.30438908 -54.24823257 137.55857902 -54.25 134.8125 C-54.25067474 133.87248138 -54.25134949 132.93246277 -54.25204468 131.96395874 C-54.23584569 117.7580521 -53.6948721 103.98282695 -51 90 C-50.83902832 89.10007324 -50.67805664 88.20014648 -50.51220703 87.27294922 C-46.27257645 63.85112838 -38.48379626 41.34151303 -28 20 C-27.63986816 19.25137695 -27.27973633 18.50275391 -26.90869141 17.73144531 C-25.87720018 15.60110017 -24.82058539 13.48592681 -23.75 11.375 C-23.29258423 10.44155762 -23.29258423 10.44155762 -22.82592773 9.48925781 C-21.41591325 6.81316227 -20.34894578 5.19536256 -17.68359375 3.703125 C-14.56554842 2.88616989 -11.45714411 2.08496526 -8.3125 1.375 C-7.17425781 1.11460938 -6.03601562 0.85421875 -4.86328125 0.5859375 C-2 0 -2 0 0 0 Z " fill="#000000" transform="translate(54,122)"/>
<path d="M0 0 C4.34314353 0.61403064 8.67178453 1.28770458 13 2 C14.14726562 2.17144531 15.29453125 2.34289063 16.4765625 2.51953125 C24.80538894 4.0312035 28.55185589 6.71724659 34 13 C35.97766448 14.77026896 38.0003066 16.469728 40.04296875 18.1640625 C45.78861554 23.55419023 48.18531424 28.32778246 50.5625 35.75 C51.1712295 37.54318801 51.7805966 39.3361597 52.390625 41.12890625 C53.28714952 43.81694815 54.15466881 46.50512868 54.984375 49.21484375 C57.41780537 56.48069952 62.17498206 60.24094355 68 65 C69.6748923 66.49080971 71.34168281 67.99077442 73 69.5 C73.82371094 70.23476562 74.64742187 70.96953125 75.49609375 71.7265625 C77.20242686 73.27583843 78.88143136 74.85562675 80.53515625 76.4609375 C85.82539407 81.51405492 89.85724123 84.2719132 97 86 C97.24621094 85.30390625 97.49242187 84.6078125 97.74609375 83.890625 C99.19205635 80.55725327 101.02308898 77.75544782 103.0625 74.75 C103.77535156 73.69296875 104.48820313 72.6359375 105.22265625 71.546875 C107 69 107 69 108 68 C110.08491502 67.71117406 112.17835423 67.48352996 114.2734375 67.28125 C115.57410156 67.15363281 116.87476563 67.02601562 118.21484375 66.89453125 C119.60155535 66.76294548 120.98827415 66.63143552 122.375 66.5 C123.72269513 66.36888866 125.07035194 66.23738266 126.41796875 66.10546875 C133.1704001 65.44944254 139.92321329 64.81815993 146.68530273 64.26977539 C150.23532184 63.85602461 153.56433568 62.97235783 157 62 C161.78404764 68.58568271 166.06593178 75.27829977 169.9375 82.4375 C170.45401123 83.39197021 170.97052246 84.34644043 171.50268555 85.32983398 C188.79076468 117.79243639 199.91000434 155.83311796 200.23828125 192.7734375 C200.24802979 193.68678864 200.25777832 194.60013977 200.26782227 195.54116821 C200.43883254 215.7193123 200.19752603 235.17644724 196 255 C195.81276367 255.92522461 195.62552734 256.85044922 195.43261719 257.80371094 C186.44156591 301.54773762 165.45525844 343.28439034 135 376 C133.89158321 377.28802136 132.78727495 378.57959201 131.6875 379.875 C123.57808279 389.14558087 114.73775561 397.46286713 105 405 C104.06671875 405.72703125 103.1334375 406.4540625 102.171875 407.203125 C77.21139726 426.29054915 36.91351512 454 4 454 C5.42597313 438.59949018 5.42597313 438.59949018 9.90032959 434.08087158 C12.37122659 432.27407266 14.89796715 430.67522816 17.5234375 429.1015625 C18.46176422 428.50048676 19.40009094 427.89941101 20.36685181 427.28012085 C24.35629076 424.72488576 28.38572397 422.23622899 32.41601562 419.74609375 C35.36450627 417.91071101 38.287454 416.03893343 41.2109375 414.1640625 C42.56896988 413.35251205 42.56896988 413.35251205 43.95443726 412.52456665 C53.2589081 406.53814158 55.28152333 397.77135658 58.11328125 387.59472656 C60.14074391 380.79593067 62.02325907 375.66580218 68.47143555 372.17089844 C70.39039453 371.29975711 72.30896434 370.50744139 74.28125 369.765625 C74.98564209 369.49564697 75.69003418 369.22566895 76.41577148 368.94750977 C78.42622805 368.21037401 80.46317475 367.54533543 82.50805664 366.90991211 C92.09215409 363.56300298 96.2841344 358.8535624 100.81082153 349.85964966 C102.05086727 347.27404799 103.24520724 344.67041309 104.4375 342.0625 C105.26065288 340.34882914 106.08810896 338.63721844 106.91992188 336.92773438 C108.5394469 333.58385409 110.13393093 330.22995759 111.70654297 326.86376953 C114.99763406 319.83972059 118.49869932 312.92097891 122 306 C121.07380859 305.70520752 120.14761719 305.41041504 119.19335938 305.10668945 C115.65259239 303.87960255 112.65671871 302.16143594 109.5 300.1875 C104.91722932 297.34890067 100.31369446 294.60002487 95.5859375 292.0078125 C84.34264013 285.76701396 75.35299915 279.55686393 67.23974609 269.52587891 C65.52212792 267.41183527 63.69663938 265.39946109 61.875 263.375 C60.29344371 261.56399513 58.98101624 259.96662532 57.7890625 257.87109375 C55.13565004 255.09601828 52.1463029 255.0999923 48.5 254.6875 C39.06364426 253.38814169 30.00697238 251.04183505 20.83203125 248.51245117 C5.48183581 244.35244794 -7.53793119 242.146434 -22.80078125 247.22265625 C-26.20526122 248.04987422 -27.76169934 248.2890323 -31 247 C-33.67578125 244.56640625 -33.67578125 244.56640625 -36.3125 241.5625 C-36.76689453 241.05912109 -37.22128906 240.55574219 -37.68945312 240.03710938 C-41 236.28847509 -41 236.28847509 -41 234 C-41.67546875 233.87882813 -42.3509375 233.75765625 -43.046875 233.6328125 C-44.38492188 233.38144531 -44.38492188 233.38144531 -45.75 233.125 C-46.63171875 232.96257812 -47.5134375 232.80015625 -48.421875 232.6328125 C-51 232 -51 232 -55 230 C-54.67 224.06 -54.34 218.12 -54 212 C-62.91666289 211.56971539 -62.91666289 211.56971539 -70.7109375 215.0703125 C-72.6479442 217.30101697 -74.38984903 219.52476791 -76 222 C-76.66 221.67 -77.32 221.34 -78 221 C-78.83674268 218.24436685 -79.54624171 215.55116439 -80.1875 212.75 C-80.37763672 211.98558594 -80.56777344 211.22117187 -80.76367188 210.43359375 C-82.66720512 202.2996768 -82.66720512 202.2996768 -81 199 C-78.43894945 197.15260733 -75.69100963 195.90274243 -72.8125 194.625 C-72.05646484 194.25761719 -71.30042969 193.89023438 -70.52148438 193.51171875 C-65.95244929 191.41146845 -62.96701988 190.39730825 -58 192 C-55.39225792 193.07736695 -52.85574376 194.27952476 -50.3125 195.5 C-43.87333115 198.47587977 -38.18739384 200.10659271 -31 200 C-30.81566406 198.88882813 -30.63132812 197.77765625 -30.44140625 196.6328125 C-28.49827793 186.22495339 -25.78258857 180.43054902 -18 173 C-16.51511556 171.25137054 -15.05713011 169.479591 -13.625 167.6875 C-10.16783224 163.42081937 -6.66823219 159.19519161 -3.125 155 C-2.6604541 154.44787842 -2.1959082 153.89575684 -1.71728516 153.3269043 C4.36177988 146.14346466 4.36177988 146.14346466 8.88549805 143.82348633 C9.66028 143.42329788 10.43506195 143.02310944 11.23332214 142.61079407 C12.06769302 142.18880234 12.9020639 141.76681061 13.76171875 141.33203125 C14.62634232 140.89235519 15.49096588 140.45267914 16.38179016 139.99967957 C18.21175641 139.0727287 20.04344386 138.14916911 21.87670898 137.22875977 C24.66764215 135.82250568 27.44596483 134.39323837 30.22460938 132.96289062 C32.00708221 132.06365511 33.79026363 131.16582252 35.57421875 130.26953125 C36.39846848 129.84146683 37.2227182 129.4134024 38.07194519 128.97236633 C45.97857288 125.06445351 52.12034814 125.73099057 60.8125 126.9375 C62.09769531 127.11152344 63.38289062 127.28554687 64.70703125 127.46484375 C68 128 68 128 71 129 C71.71922038 123.83226836 72.32349114 118.98090024 69.32348633 114.49072266 C68.58380615 113.7229248 67.84412598 112.95512695 67.08203125 112.1640625 C66.26307373 111.3066748 65.44411621 110.44928711 64.6003418 109.56591797 C61.34373546 106.35242322 58.00876692 103.23365947 54.65332031 100.12402344 C43.55412573 89.70218411 36.71940348 79.06053635 31 65 C29.7934375 64.98582031 28.586875 64.97164063 27.34375 64.95703125 C25.72913013 64.91009463 24.11454799 64.86184747 22.5 64.8125 C21.70851563 64.80669922 20.91703125 64.80089844 20.1015625 64.79492188 C15.69641209 64.63243682 12.80025813 64.14521584 9.15625 61.59375 C4.17973595 58.12672054 -1.09983636 57.54175941 -7 56.6875 C-10.63 56.130625 -14.26 55.57375 -18 55 C-19.32 63.25 -20.64 71.5 -22 80 C-26.60264575 80.92052915 -28.37625859 80.96028555 -32.73828125 80.00390625 C-34.33833008 79.66069336 -34.33833008 79.66069336 -35.97070312 79.31054688 C-37.07349609 79.06369141 -38.17628906 78.81683594 -39.3125 78.5625 C-40.43462891 78.31951172 -41.55675781 78.07652344 -42.71289062 77.82617188 C-45.47730798 77.22623449 -48.2394035 76.61723879 -51 76 C-51.33808686 73.93827387 -51.67027361 71.8755797 -52 69.8125 C-52.185625 68.66394531 -52.37125 67.51539062 -52.5625 66.33203125 C-52.93489477 63.49584607 -53.08596021 60.85280436 -53 58 C-50.25124318 57.32781493 -47.50119274 56.66207565 -44.75 56 C-43.97269531 55.80921875 -43.19539063 55.6184375 -42.39453125 55.421875 C-41.64042969 55.24140625 -40.88632812 55.0609375 -40.109375 54.875 C-39.07248535 54.62363281 -39.07248535 54.62363281 -38.01464844 54.3671875 C-36 54 -36 54 -32 54 C-31.90203125 53.41476563 -31.8040625 52.82953125 -31.703125 52.2265625 C-30.11048656 43.08262113 -28.05083266 34.04954799 -26 25 C-22.53690981 23.78239957 -20.77694761 24.19255679 -17.453125 25.65234375 C-16.60878906 26.01650391 -15.76445312 26.38066406 -14.89453125 26.75585938 C-14.02183594 27.14580078 -13.14914062 27.53574219 -12.25 27.9375 C-11.36183594 28.32357422 -10.47367187 28.70964844 -9.55859375 29.10742188 C-7.36792853 30.06142125 -5.18335394 31.02938448 -3 32 C-3.33 36.29 -3.66 40.58 -4 45 C-2.80375 45.391875 -1.6075 45.78375 -0.375 46.1875 C2.61969369 47.17622426 5.5816875 48.21572516 8.5390625 49.3125 C9.76367188 49.76625 10.98828125 50.22 12.25 50.6875 C13.41015625 51.12449219 14.5703125 51.56148437 15.765625 52.01171875 C19.53883868 53.16464515 22.28426119 53.77019137 25.94921875 52.125 C26.52285156 51.75375 27.09648437 51.3825 27.6875 51 C31 49 31 49 33 49 C30.78363944 44.99013714 28.11581154 41.70111687 25 38.375 C24.49960205 37.827229 23.9992041 37.27945801 23.48364258 36.71508789 C20.11779959 33.08455481 16.60557801 29.68583373 12.94921875 26.34765625 C12.08103516 25.53570801 11.21285156 24.72375977 10.31835938 23.88720703 C8.59218721 22.27989342 6.83993215 20.70005295 5.06054688 19.15185547 C-0.84660274 13.59337524 -0.84660274 13.59337524 -1.31396484 8.73876953 C-1.07043598 5.747533 -0.66823825 2.92350346 0 0 Z " fill="#000000" transform="translate(312,51)"/>
<path d="M0 0 C0.88682465 -0.00979385 1.77364929 -0.01958771 2.68734741 -0.02967834 C22.91830384 -0.20697641 42.49197019 0.10425526 62.3828125 4.23828125 C63.40101074 4.44727051 64.41920898 4.65625977 65.46826172 4.87158203 C84.73067894 8.96572739 103.93074735 15.03798174 121.3828125 24.23828125 C119.3828125 26.23828125 119.3828125 26.23828125 116.58203125 26.50390625 C109.33551419 26.47166368 102.45216591 25.98571351 95.3203125 24.67578125 C87.73393787 23.54589567 84.17126839 25.04563996 77.9453125 29.23828125 C77.18903564 29.7379541 76.43275879 30.23762695 75.65356445 30.75244141 C70.39094501 34.32336167 66.07657763 38.01728631 62.3828125 43.23828125 C57.80584108 49.05227197 57.80584108 49.05227197 52.46240234 49.75073242 C50.75675659 49.93300326 49.05047811 50.10940925 47.34375 50.28125 C46.43009674 50.37336258 45.51644348 50.46547516 44.57510376 50.56037903 C42.63006898 50.7536135 40.68477632 50.94426653 38.73925781 51.13256836 C36.7759141 51.32565514 34.81329767 51.52631051 32.8515625 51.73510742 C21.81627705 52.90929328 11.56988797 53.55065783 0.58447266 51.73950195 C-3.51157135 51.07303435 -3.51157135 51.07303435 -7.6171875 51.23828125 C-9.28451172 52.74626349 -9.28451172 52.74626349 -10.4765625 54.88671875 C-10.95222656 55.6446875 -11.42789063 56.40265625 -11.91796875 57.18359375 C-12.63533203 58.38628906 -12.63533203 58.38628906 -13.3671875 59.61328125 C-13.86089844 60.40734375 -14.35460937 61.20140625 -14.86328125 62.01953125 C-17.3653029 66.05856014 -17.3653029 66.05856014 -19.6171875 70.23828125 C-22.31005859 70.64892578 -22.31005859 70.64892578 -25.890625 70.87109375 C-27.19128906 70.95488281 -28.49195313 71.03867188 -29.83203125 71.125 C-30.5163623 71.16415527 -31.20069336 71.20331055 -31.90576172 71.24365234 C-33.94964521 71.36084201 -35.99227906 71.49152078 -38.03515625 71.625 C-41.89490657 71.86363029 -45.75424342 72.05959144 -49.6171875 72.23828125 C-51.13155396 72.32795166 -51.13155396 72.32795166 -52.67651367 72.41943359 C-58.55497144 72.63285498 -63.00028828 71.64535898 -68.49365234 69.59570312 C-75.15278544 67.160114 -80.98406279 65.0490578 -87.76171875 67.99609375 C-91.53301005 70.01630636 -95.03419042 72.36611344 -98.40576172 74.99804688 C-104.02082161 78.14714207 -110.83557224 78.63980851 -117.13671875 79.39453125 C-140.38080488 82.37704049 -162.30255438 87.07293455 -184.6171875 94.23828125 C-184.6171875 90.07077192 -182.35366121 88.4064198 -179.6171875 85.55078125 C-179.08464355 84.98697754 -178.55209961 84.42317383 -178.00341797 83.84228516 C-176.21826727 81.96417383 -174.41887579 80.10052654 -172.6171875 78.23828125 C-171.98586914 77.57973145 -171.35455078 76.92118164 -170.70410156 76.24267578 C-162.40476827 67.61360886 -153.95276251 59.57481037 -144.29980469 52.4765625 C-142.65618596 51.26698122 -141.03103132 50.03549595 -139.40625 48.80078125 C-100.0001244 19.31565771 -49.45943908 0.45599956 0 0 Z M42.95703125 15.01953125 C41.85536621 15.6110498 40.75370117 16.20256836 39.61865234 16.81201172 C38.4356788 17.45374481 37.25290196 18.09584064 36.0703125 18.73828125 C35.48066711 19.05686096 34.89102173 19.37544067 34.2835083 19.70367432 C25.81164936 24.28273652 17.45329637 28.97776342 9.3828125 34.23828125 C13.28262922 38.42697328 16.16182444 41.15085938 22.0546875 41.3828125 C23.41558088 41.29270693 24.77518515 41.18115683 26.1328125 41.05078125 C27.20668213 40.95579346 27.20668213 40.95579346 28.30224609 40.85888672 C30.3306492 40.66778858 32.35685493 40.4537658 34.3828125 40.23828125 C35.22585938 40.19316406 36.06890625 40.14804687 36.9375 40.1015625 C44.47426059 39.23412402 50.05956847 33.34550172 55.63769531 28.64208984 C57.47207769 27.16647447 59.37068595 25.83798929 61.3125 24.5078125 C62.32570313 23.75886719 63.33890625 23.00992187 64.3828125 22.23828125 C64.3828125 21.57828125 64.3828125 20.91828125 64.3828125 20.23828125 C62.09407077 18.89969601 59.80211594 17.56727111 57.5078125 16.23828125 C56.53134766 15.6659375 56.53134766 15.6659375 55.53515625 15.08203125 C49.84864191 11.79909513 48.64162187 11.9627361 42.95703125 15.01953125 Z M-31.20703125 29.21875 C-38.146229 31.72074779 -42.59066415 32.88366137 -49.49609375 29.9375 C-52.1007339 29.07888014 -53.09245792 29.19156035 -55.6171875 30.23828125 C-58.12424953 31.94753555 -58.12424953 31.94753555 -60.6171875 34.05078125 C-61.4628125 34.73785156 -62.3084375 35.42492188 -63.1796875 36.1328125 C-65.43449445 38.08047427 -67.54264297 40.1013083 -69.6171875 42.23828125 C-67.48658251 43.62332603 -65.34319572 44.96887845 -63.1796875 46.30078125 C-62.58736328 46.69072266 -61.99503906 47.08066406 -61.38476562 47.48242188 C-55.07575065 51.2948213 -50.3828243 50.13964135 -43.46655273 48.48413086 C-39.98246662 47.59188009 -36.51844862 46.64379418 -33.0546875 45.67578125 C-31.85521484 45.34642578 -30.65574219 45.01707031 -29.41992188 44.67773438 C-26.48394817 43.87063403 -23.54983872 43.05735596 -20.6171875 42.23828125 C-21.9600296 38.8112883 -23.42538786 35.62908587 -25.2421875 32.42578125 C-25.68820313 31.63558594 -26.13421875 30.84539063 -26.59375 30.03125 C-26.93148437 29.43957031 -27.26921875 28.84789063 -27.6171875 28.23828125 C-28.92285455 28.17927144 -28.92285455 28.17927144 -31.20703125 29.21875 Z " fill="#000000" transform="translate(243.6171875,-0.23828125)"/>
</svg>
