<?xml version="1.0" standalone="no"?>
<!DOCTYPE svg PUBLIC "-//W3C//DTD SVG 20010904//EN"
 "http://www.w3.org/TR/2001/REC-SVG-20010904/DTD/svg10.dtd">
<svg version="1.0" xmlns="http://www.w3.org/2000/svg"
 width="512.000000pt" height="512.000000pt" viewBox="0 0 512.000000 512.000000"
 preserveAspectRatio="xMidYMid meet">

<g transform="translate(0.000000,512.000000) scale(0.100000,-0.100000)"
fill="#000000" stroke="none">
<path d="M0 3345 l0 -915 1280 0 1280 0 0 65 0 65 1280 0 1280 0 0 215 0 215
-1280 0 -1280 0 0 210 0 210 1280 0 1280 0 0 215 0 215 -1280 0 -1280 0 0 210
0 210 -1280 0 -1280 0 0 -915z m1353 510 c71 -15 151 -50 205 -92 42 -32 36
-38 -14 -16 -58 25 -213 23 -280 -4 -113 -45 -202 -132 -245 -240 -19 -47 -23
-78 -24 -158 0 -92 3 -105 32 -167 54 -115 150 -199 262 -232 74 -22 183 -20
251 4 30 10 56 17 58 16 5 -6 -64 -54 -115 -80 -204 -103 -444 -63 -605 99
-157 158 -193 396 -92 603 41 83 143 182 234 225 117 56 212 68 333 42z m213
-287 c20 -40 37 -74 39 -76 1 -1 39 6 84 16 44 11 81 18 81 15 0 -2 -16 -36
-36 -75 l-36 -72 29 -26 c15 -14 46 -39 68 -56 l39 -31 -84 -20 -85 -20 -3
-81 c-2 -45 -5 -82 -8 -82 -4 0 -33 22 -66 50 l-60 50 -66 -54 -67 -55 -3 88
-3 87 -67 14 c-102 19 -102 20 -28 79 l66 52 -35 69 c-19 38 -35 74 -35 78 0
5 37 1 81 -10 45 -10 83 -17 84 -16 1 2 17 36 35 76 18 39 34 72 36 72 2 0 20
-33 40 -72z"/>
<path d="M0 1920 l0 -210 2560 0 2560 0 0 210 0 210 -2560 0 -2560 0 0 -210z"/>
<path d="M0 1065 l0 -215 2560 0 2560 0 0 215 0 215 -2560 0 -2560 0 0 -215z"/>
</g>
</svg>
