<?xml version="1.0" encoding="UTF-8"?>
<svg version="1.1" xmlns="http://www.w3.org/2000/svg" width="512" height="512">
<path d="M0 0 C168.96 0 337.92 0 512 0 C512 112.86 512 225.72 512 342 C343.04 342 174.08 342 0 342 C0 229.14 0 116.28 0 0 Z " fill="#0052B3" transform="translate(0,85)"/>
<path d="M0 0 C168.96 0 337.92 0 512 0 C512 14.19 512 28.38 512 43 C343.04 43 174.08 43 0 43 C0 28.81 0 14.62 0 0 Z " fill="#D80128" transform="translate(0,384)"/>
<path d="M0 0 C168.96 0 337.92 0 512 0 C512 14.19 512 28.38 512 43 C343.04 43 174.08 43 0 43 C0 28.81 0 14.62 0 0 Z " fill="#EFEEEE" transform="translate(0,341)"/>
<path d="M0 0 C168.96 0 337.92 0 512 0 C512 13.86 512 27.72 512 42 C343.04 42 174.08 42 0 42 C0 28.14 0 14.28 0 0 Z " fill="#D80027" transform="translate(0,299)"/>
<path d="M0 0 C84.48 0 168.96 0 256 0 C256 14.19 256 28.38 256 43 C87.04 43 -81.92 43 -256 43 C-256 33.1 -256 23.2 -256 13 C-171.52 13 -87.04 13 0 13 C0 8.71 0 4.42 0 0 Z " fill="#EFEDED" transform="translate(256,256)"/>
<path d="M0 0 C84.48 0 168.96 0 256 0 C256 14.19 256 28.38 256 43 C171.52 43 87.04 43 0 43 C0 28.81 0 14.62 0 0 Z " fill="#D80128" transform="translate(256,213)"/>
<path d="M0 0 C84.48 0 168.96 0 256 0 C256 14.19 256 28.38 256 43 C171.52 43 87.04 43 0 43 C0 28.81 0 14.62 0 0 Z " fill="#D80128" transform="translate(256,128)"/>
<path d="M0 0 C84.48 0 168.96 0 256 0 C256 14.19 256 28.38 256 43 C171.52 43 87.04 43 0 43 C0 28.81 0 14.62 0 0 Z " fill="#F0EFEF" transform="translate(256,85)"/>
<path d="M0 0 C84.48 0 168.96 0 256 0 C256 13.86 256 27.72 256 42 C171.52 42 87.04 42 0 42 C0 28.14 0 14.28 0 0 Z " fill="#F0F0F0" transform="translate(256,171)"/>
<path d="M0 0 C12.08788823 -0.52625371 24.32240537 3.24536304 34.2109375 10.24609375 C36.01171875 12.43359375 36.01171875 12.43359375 37.2109375 14.24609375 C36.42332031 14.02953125 35.63570313 13.81296875 34.82421875 13.58984375 C21.3285058 10.14005204 9.80115867 9.63094976 -2.484375 16.82421875 C-12.50091031 23.46204215 -18.56147791 31.65172337 -21.7890625 43.24609375 C-22.00191508 46.04358475 -22.12340186 48.70315179 -22.1015625 51.49609375 C-22.09592285 52.24826172 -22.0902832 53.00042969 -22.08447266 53.77539062 C-21.813019 66.2568835 -16.92071236 75.95354265 -7.921875 84.609375 C3.28334459 93.20825231 14.65972281 94.18225442 28.2109375 93.24609375 C31.71916087 92.56810002 34.93255845 91.66194897 38.2109375 90.24609375 C29.97039054 99.24563846 18.27631621 103.73797489 6.3046875 104.4921875 C-8.79301014 105.07698741 -20.61806102 101.02842624 -32.265625 91.14453125 C-43.20019831 80.79508561 -48.61814906 68.37840075 -49.1328125 53.38525391 C-49.35780126 37.98406987 -44.15332538 26.38542346 -33.765625 15.03515625 C-24.48712292 6.03259475 -12.74250678 1.12433883 0 0 Z " fill="#FAD745" transform="translate(121.7890625,124.75390625)"/>
<path d="M0 0 C2.68125418 2.38246339 4.11423459 4.8545504 5.6875 8.0625 C6.12449219 8.94035156 6.56148437 9.81820312 7.01171875 10.72265625 C8 13 8 13 8 15 C8.90363281 14.7834375 9.80726563 14.566875 10.73828125 14.34375 C11.91777344 14.0653125 13.09726563 13.786875 14.3125 13.5 C15.48425781 13.2215625 16.65601563 12.943125 17.86328125 12.65625 C21 12 21 12 24 12 C23.37183502 15.94949704 22.1354471 19.19892028 20.4375 22.8125 C19.98246094 23.78832031 19.52742188 24.76414063 19.05859375 25.76953125 C18.53458984 26.87361328 18.53458984 26.87361328 18 28 C18.56203125 28.25523437 19.1240625 28.51046875 19.703125 28.7734375 C22.29386482 30.15692781 24.45107845 31.79938583 26.75 33.625 C27.54921875 34.25664062 28.3484375 34.88828125 29.171875 35.5390625 C29.77515625 36.02117187 30.3784375 36.50328125 31 37 C25.26941878 39.97790028 20.52035739 41 14 41 C14 46.61 14 52.22 14 58 C10.61198496 55.96719098 8.05841489 54.3456602 5.1875 51.8125 C4.58292969 51.28269531 3.97835937 50.75289062 3.35546875 50.20703125 C2.90816406 49.80871094 2.46085937 49.41039062 2 49 C-1.51590054 50.55715875 -4.22811262 52.68580036 -7.1875 55.125 C-11.89679715 59 -11.89679715 59 -13 59 C-13 53.06 -13 47.12 -13 41 C-15.64 40.67 -18.28 40.34 -21 40 C-23.70337321 39.4284535 -26.32881995 38.71549466 -29 38 C-25.19588166 34.08060535 -21.18423892 30.50897269 -17 27 C-17.433125 26.08476562 -17.86625 25.16953125 -18.3125 24.2265625 C-19.1478125 22.44378906 -19.1478125 22.44378906 -20 20.625 C-20.556875 19.44164062 -21.11375 18.25828125 -21.6875 17.0390625 C-23 14 -23 14 -23 12 C-17.08507728 12.45224761 -11.64800112 13.1582605 -6 15 C-5.81824219 14.41992188 -5.63648438 13.83984375 -5.44921875 13.2421875 C-3.9581894 8.60852707 -2.31666424 4.30237645 0 0 Z " fill="#F9D746" transform="translate(152,148)"/>
<path d="M0 0 C-2.31 1.65 -4.62 3.3 -7 5 C-7.33 4.34 -7.66 3.68 -8 3 C-7 1 -7 1 -4.5625 -0.1875 C-2 -1 -2 -1 0 0 Z " fill="#C7BC5C" transform="translate(160,216)"/>
</svg>
