<?xml version="1.0" encoding="UTF-8"?>
<svg version="1.1" xmlns="http://www.w3.org/2000/svg" width="512" height="512">
<path d="M0 0 C168.96 0 337.92 0 512 0 C512 112.86 512 225.72 512 342 C343.04 342 174.08 342 0 342 C0 229.14 0 116.28 0 0 Z " fill="#F0F0F0" transform="translate(0,85)"/>
<path d="M0 0 C168.96 0 337.92 0 512 0 C512 56.43 512 112.86 512 171 C343.04 171 174.08 171 0 171 C0 114.57 0 58.14 0 0 Z " fill="#D80027" transform="translate(0,85)"/>
<path d="M0 0 C0 0.66 0 1.32 0 2 C-0.59425781 2.20753906 -1.18851563 2.41507812 -1.80078125 2.62890625 C-16.80709838 8.20668198 -26.70709041 16.52086287 -33.7734375 30.91015625 C-39.03108743 44.15474571 -39.04941977 59.81167888 -33.54296875 72.953125 C-26.97368904 85.92537355 -17.97922904 93.49338945 -5.0390625 99.5546875 C-2 101 -2 101 1 103 C-21.97077036 103.83169479 -21.97077036 103.83169479 -31 99 C-31.83273438 98.5875 -32.66546875 98.175 -33.5234375 97.75 C-45.71764451 91.1463679 -52.76273308 81.55489265 -58 69 C-58.54140625 67.71802734 -58.54140625 67.71802734 -59.09375 66.41015625 C-63.26636271 54.80024774 -61.71838898 42.16267835 -57 31 C-50.11196797 16.73567037 -39.40153719 6.59554619 -24.375 1 C-16.57474167 -1.0410676 -7.99056061 -0.22150425 0 0 Z " fill="#EFEBEB" transform="translate(122,119)"/>
<path d="M0 0 C2.95183101 2.95183101 3.08663988 5.95511947 4 10 C7.96 10 11.92 10 16 10 C13.42215154 12.64752004 11.08351902 14.94432065 8 17 C8.66 20.96 9.32 24.92 10 29 C8.046875 27.40494792 6.09375 25.80989583 4.140625 24.21484375 C2.10276481 22.78997936 2.10276481 22.78997936 -0.1015625 23.1875 C-2.77381607 24.33118054 -4.75833803 26.17127576 -7 28 C-7.66 28 -8.32 28 -9 28 C-8.34 24.37 -7.68 20.74 -7 17 C-8.32 16.030625 -9.64 15.06125 -11 14.0625 C-12.35348244 13.06853634 -13.69243643 12.0536394 -15 11 C-15 10.67 -15 10.34 -15 10 C-11.04 10 -7.08 10 -3 10 C-2.01 6.7 -1.02 3.4 0 0 Z " fill="#EEDCE0" transform="translate(132,179)"/>
<path d="M0 0 C0.66 0 1.32 0 2 0 C2.99 2.97 3.98 5.94 5 9 C10.445 9.495 10.445 9.495 16 10 C13.42215154 12.64752004 11.08351902 14.94432065 8 17 C8.66 20.63 9.32 24.26 10 28 C8.783125 27.13375 7.56625 26.2675 6.3125 25.375 C3.0720004 23.23923873 3.0720004 23.23923873 -0.6875 23.5 C-1.450625 23.995 -2.21375 24.49 -3 25 C-3.928125 25.53625 -4.85625 26.0725 -5.8125 26.625 C-6.8953125 27.305625 -6.8953125 27.305625 -8 28 C-7.34 24.37 -6.68 20.74 -6 17 C-7.32 16.030625 -8.64 15.06125 -10 14.0625 C-11.35348244 13.06853634 -12.69243643 12.0536394 -14 11 C-14 10.67 -14 10.34 -14 10 C-10.04 10 -6.08 10 -2 10 C-1.855625 8.906875 -1.71125 7.81375 -1.5625 6.6875 C-1 3 -1 3 0 0 Z " fill="#EEDEE1" transform="translate(167,179)"/>
<path d="M0 0 C2.45823172 3.68734758 3.01242616 6.69699971 4 11 C7.63 11 11.26 11 15 11 C10 16 10 16 8.28125 17.375 C6.74413682 18.95242315 6.74413682 18.95242315 7.14453125 21.26171875 C7.36496094 22.06222656 7.58539063 22.86273438 7.8125 23.6875 C8.13154297 24.89986328 8.13154297 24.89986328 8.45703125 26.13671875 C8.72580078 27.05904297 8.72580078 27.05904297 9 28 C6.08482708 26.92598892 4.22189824 26.22189824 2 24 C-2.50046315 24.25002573 -5.41788227 26.41754304 -9 29 C-8.34 25.37 -7.68 21.74 -7 18 C-8.32 17.030625 -9.64 16.06125 -11 15.0625 C-12.35348244 14.06853634 -13.69243643 13.0536394 -15 12 C-15 11.67 -15 11.34 -15 11 C-11.04 11 -7.08 11 -3 11 C-2.87625 9.9275 -2.7525 8.855 -2.625 7.75 C-2.10356064 4.62136385 -1.59911746 2.66519576 0 0 Z " fill="#EEE3E5" transform="translate(179,145)"/>
<path d="M0 0 C2.45823172 3.68734758 3.01242616 6.69699971 4 11 C7.63 11 11.26 11 15 11 C10.375 15.875 10.375 15.875 7 17 C7.33 18.0725 7.66 19.145 8 20.25 C9 24 9 24 9 28 C6.50638429 26.79618552 4.31856917 25.54571278 2 24 C-2.50319149 24.24341576 -5.4132414 26.41419729 -9 29 C-8.68950274 27.56206608 -8.3765224 26.1246682 -8.0625 24.6875 C-7.88847656 23.88699219 -7.71445313 23.08648437 -7.53515625 22.26171875 C-7 20 -7 20 -6 17 C-6.556875 16.7525 -7.11375 16.505 -7.6875 16.25 C-10.39971127 14.78393985 -12.63587365 12.97010529 -15 11 C-11.04 11 -7.08 11 -3 11 C-2.690625 9.55625 -2.38125 8.1125 -2.0625 6.625 C-1.54516353 4.21076314 -1.10514766 2.21029533 0 0 Z " fill="#EEE4E6" transform="translate(121,145)"/>
<path d="M0 0 C2.45823172 3.68734758 3.01242616 6.69699971 4 11 C7.63 11 11.26 11 15 11 C12.74259377 13.33524782 10.7194239 15.18705073 8 17 C8.33 20.63 8.66 24.26 9 28 C7.2421875 26.99088542 5.484375 25.98177083 3.7265625 24.97265625 C2.50201525 24.28280949 1.25710923 23.62855462 0 23 C-4.455 25.97 -4.455 25.97 -9 29 C-8.34 25.04 -7.68 21.08 -7 17 C-8.155 16.195625 -9.31 15.39125 -10.5 14.5625 C-11.68653894 13.73616038 -12.8588092 12.88791631 -14 12 C-14 11.67 -14 11.34 -14 11 C-10.37 11 -6.74 11 -3 11 C-2.87625 9.9275 -2.7525 8.855 -2.625 7.75 C-2.10356064 4.62136385 -1.59911746 2.66519576 0 0 Z " fill="#EEE4E6" transform="translate(150,123)"/>
</svg>
