<?xml version="1.0" standalone="no"?>
<!DOCTYPE svg PUBLIC "-//W3C//DTD SVG 20010904//EN"
 "http://www.w3.org/TR/2001/REC-SVG-20010904/DTD/svg10.dtd">
<svg version="1.0" xmlns="http://www.w3.org/2000/svg"
 width="512.000000pt" height="512.000000pt" viewBox="0 0 512.000000 512.000000"
 preserveAspectRatio="xMidYMid meet">

<g transform="translate(0.000000,512.000000) scale(0.100000,-0.100000)"
fill="#000000" stroke="none">
<path d="M0 3415 l0 -855 2560 0 2560 0 0 855 0 855 -2560 0 -2560 0 0 -855z
m1230 505 c0 -5 -8 -10 -19 -10 -39 0 -165 -74 -220 -129 -63 -63 -122 -168
-141 -250 -20 -84 -8 -232 24 -311 52 -128 172 -246 299 -292 l62 -23 -50 -8
c-80 -14 -187 7 -280 52 -323 160 -392 577 -137 830 69 69 141 112 229 136 57
16 233 20 233 5z m368 -140 l57 -1 -25 -19 c-14 -10 -34 -25 -44 -33 -19 -14
-19 -17 -4 -71 l15 -56 -47 34 -47 34 -46 -34 c-26 -19 -47 -30 -47 -26 0 5 7
30 16 56 9 26 15 48 13 50 -2 1 -22 16 -43 32 l-40 29 54 5 c59 5 53 -1 87
100 3 9 14 -10 25 -42 l20 -58 56 0z m-290 -220 l57 -1 -25 -20 c-14 -12 -34
-27 -44 -35 -19 -13 -19 -16 -4 -68 16 -59 15 -59 -38 -19 -17 13 -34 23 -38
23 -4 0 -28 -14 -53 -32 -30 -20 -44 -26 -40 -15 22 58 28 101 15 108 -7 4
-28 19 -47 33 l-35 26 60 0 60 0 19 58 18 57 19 -57 20 -58 56 0z m577 0 l60
-5 -47 -33 -47 -32 19 -55 c20 -59 19 -60 -37 -19 -17 13 -36 24 -40 24 -5 0
-28 -14 -51 -31 -46 -34 -49 -31 -27 31 8 23 15 44 15 46 0 2 -21 19 -46 39
l-47 35 60 0 60 0 13 48 c19 71 23 72 40 12 l16 -55 59 -5z m-540 -280 l17
-50 61 0 62 -1 -27 -20 c-76 -56 -72 -50 -55 -107 8 -29 13 -52 11 -52 -2 0
-23 13 -45 30 -44 31 -45 31 -97 -8 -18 -14 -35 -23 -37 -20 -3 2 2 26 12 53
18 54 21 47 -55 104 l-27 20 62 1 61 0 17 50 c9 28 18 50 20 50 2 0 11 -22 20
-50z m356 3 l15 -48 59 -5 60 -5 -40 -29 c-22 -17 -43 -33 -48 -36 -4 -3 0
-27 9 -54 9 -26 14 -49 12 -51 -2 -3 -23 9 -46 26 l-42 31 -42 -31 c-23 -17
-44 -29 -46 -26 -2 2 3 26 12 52 16 48 16 48 -8 66 -13 10 -35 26 -48 37 l-23
19 62 1 61 0 13 50 c7 28 16 50 19 50 4 0 13 -21 21 -47z"/>
</g>
</svg>
